<mxfile host="app.diagrams.net" modified="2024-06-17T07:17:34.078Z" agent="Mozilla/5.0 (Windows NT 10.0; Win64; x64) AppleWebKit/537.36 (KHTML, like Gecko) Chrome/125.0.0.0 Safari/537.36" version="24.5.4" etag="YU1sOYZa3yaV9OQn8RLT" type="github">
  <diagram name="第 1 页" id="ZXi959offg9TOEU08AZm">
    <mxGraphModel>
      <root>
        <mxCell id="0" />
        <mxCell id="1" parent="0" />
      </root>
    </mxGraphModel>
  </diagram>
</mxfile>
